<?xml version="1.0" standalone="no"?>
<!DOCTYPE svg PUBLIC "-//W3C//DTD SVG 20010904//EN"
 "http://www.w3.org/TR/2001/REC-SVG-20010904/DTD/svg10.dtd">
<svg version="1.0" xmlns="http://www.w3.org/2000/svg"
 width="500.000000pt" height="500.000000pt" viewBox="0 0 500.000000 500.000000"
 preserveAspectRatio="xMidYMid meet">

<g transform="translate(0.000000,500.000000) scale(0.100000,-0.100000)"
fill="#000000" stroke="none">
<path d="M2162 3638 l-322 -323 642 -642 643 -643 -313 -312 -312 -313 -639
639 c-351 351 -641 634 -644 629 -3 -5 284 -299 637 -652 564 -563 646 -642
662 -633 11 6 161 153 334 326 l315 316 -643 643 -642 642 312 313 313 312
637 -637 c350 -350 641 -634 645 -630 9 10 -1267 1287 -1287 1287 -8 0 -160
-145 -338 -322z"/>
</g>
</svg>
