<?xml version="1.0" standalone="no"?>
<!DOCTYPE svg PUBLIC "-//W3C//DTD SVG 20010904//EN"
 "http://www.w3.org/TR/2001/REC-SVG-20010904/DTD/svg10.dtd">
<svg version="1.0" xmlns="http://www.w3.org/2000/svg"
 width="500.000000pt" height="500.000000pt" viewBox="0 0 500.000000 500.000000"
 preserveAspectRatio="xMidYMid meet">

<g transform="translate(0.000000,500.000000) scale(0.100000,-0.100000)"
fill="#000000" stroke="none">
<path d="M2315 3393 c-11 -3 -54 -19 -95 -35 -211 -84 -366 -253 -437 -478
-24 -74 -27 -101 -27 -210 0 -88 5 -144 18 -190 68 -248 252 -442 497 -523 57
-19 131 -29 123 -16 -3 5 -11 6 -17 2 -8 -4 -7 -1 1 9 10 12 12 56 10 177 -2
103 1 161 7 161 6 0 3 5 -5 10 -8 5 -11 10 -5 10 5 0 -13 12 -40 26 -122 64
-184 133 -216 238 -53 170 27 357 186 436 77 39 78 40 75 138 -1 48 -3 123 -4
167 -2 77 -2 80 -26 82 -14 0 -34 -1 -45 -4z"/>
<path d="M2347 2918 c-38 -51 -57 -129 -57 -239 0 -109 20 -181 65 -233 l25
-29 0 27 c0 15 5 36 10 47 6 10 7 19 3 19 -4 0 -8 74 -7 165 1 95 -3 165 -8
165 -5 0 -2 7 6 16 18 17 21 28 6 19 -5 -3 -7 8 -5 29 6 48 -9 53 -38 14z"/>
<path d="M2091 1536 c-29 -10 -31 -13 -17 -25 13 -11 16 -38 16 -159 0 -126
-2 -147 -17 -158 -16 -12 -10 -13 41 -14 47 0 56 3 48 13 -18 21 -19 157 -2
168 46 28 80 -10 80 -90 0 -37 -5 -60 -17 -73 -15 -17 -14 -18 42 -18 56 0 57
1 42 18 -13 14 -17 38 -17 94 0 60 -4 78 -18 91 -23 21 -71 22 -99 2 -12 -8
-24 -12 -26 -8 -2 5 -3 45 -1 91 2 89 2 89 -55 68z"/>
<path d="M1400 1519 c-40 -17 -89 -58 -105 -89 -23 -45 -19 -130 8 -171 41
-61 109 -86 220 -81 44 2 77 31 77 68 0 25 0 25 -34 -10 -29 -31 -39 -36 -81
-36 -59 0 -97 26 -119 80 -44 111 14 230 113 230 48 0 82 -18 94 -50 14 -38
27 -39 27 -2 0 52 -19 64 -101 68 -41 2 -85 -1 -99 -7z"/>
<path d="M1734 1398 c-36 -9 -88 -54 -79 -68 9 -15 36 1 46 27 6 18 15 23 32
21 18 -2 23 -10 25 -40 3 -36 1 -39 -44 -60 -55 -27 -74 -50 -58 -75 16 -25
48 -33 78 -18 22 12 30 12 53 0 18 -9 32 -11 44 -4 24 12 37 34 16 26 -28 -11
-40 18 -33 82 11 95 -12 127 -80 109z m26 -152 c0 -26 -24 -51 -40 -41 -14 9
-13 52 3 58 26 11 37 6 37 -17z"/>
<path d="M1944 1403 c-33 -6 -56 -37 -52 -69 2 -20 16 -38 45 -59 48 -34 57
-69 21 -81 -17 -5 -28 0 -50 27 l-28 33 0 -31 c0 -26 5 -33 30 -42 63 -22 126
16 118 70 -2 13 -23 38 -48 57 -28 22 -45 42 -45 56 0 29 40 34 57 7 16 -27
28 -27 28 -1 0 13 -10 24 -26 30 -14 6 -26 9 -27 9 -1 -1 -12 -4 -23 -6z"/>
</g>
</svg>
