<?xml version="1.0" standalone="no"?>
<!DOCTYPE svg PUBLIC "-//W3C//DTD SVG 20010904//EN"
 "http://www.w3.org/TR/2001/REC-SVG-20010904/DTD/svg10.dtd">
<svg version="1.0" xmlns="http://www.w3.org/2000/svg"
 width="500.000000pt" height="500.000000pt" viewBox="0 0 500.000000 500.000000"
 preserveAspectRatio="xMidYMid meet">

<g transform="translate(0.000000,500.000000) scale(0.100000,-0.100000)"
fill="#000000" stroke="none">
<path d="M2010 4669 c-322 -67 -668 -238 -940 -467 -350 -293 -604 -698 -720
-1147 -49 -189 -64 -318 -64 -545 -1 -235 14 -357 70 -568 169 -650 634 -1195
1249 -1464 112 -49 280 -105 388 -128 51 -11 103 -23 115 -25 15 -4 21 -2 17
5 -5 9 15 15 38 11 4 -1 7 247 6 551 -1 304 -4 547 -6 541 -9 -25 -22 -13 -25
23 -3 35 -5 37 -83 68 -161 66 -290 153 -407 274 -224 234 -327 529 -297 852
24 256 124 468 308 651 126 125 276 223 423 276 26 9 44 21 41 26 -3 5 5 7 18
3 13 -3 19 -3 12 0 -16 7 -5 34 11 28 9 -3 11 4 8 26 -3 23 -8 30 -20 25 -13
-5 -13 -3 1 13 16 17 17 58 14 498 l-2 479 -3 -482 c-1 -314 -6 -483 -12 -483
-7 0 -10 167 -10 480 0 426 2 480 16 488 29 16 -46 11 -146 -9z m149 -3835 c1
-369 -2 -473 -11 -477 -10 -3 -12 99 -9 497 2 275 7 490 11 476 4 -14 8 -237
9 -496z"/>
<path d="M2146 3378 c12 -19 11 -45 -1 -45 -7 0 -12 8 -10 17 2 9 -3 17 -11
17 -8 0 -14 -3 -14 -7 0 -3 -18 -25 -40 -49 -85 -91 -164 -298 -196 -513 -21
-141 -15 -461 11 -577 33 -150 111 -322 187 -415 22 -26 26 -27 46 -15 l22 14
0 716 c0 643 2 718 16 730 14 12 14 14 -2 26 -16 11 -16 13 -1 19 23 8 24 91
2 91 -8 0 -12 -4 -9 -9z"/>
<path d="M2162 2517 c-1 -401 -6 -726 -11 -723 -4 3 -17 -1 -27 -9 -19 -15
-19 -15 0 -30 11 -8 26 -15 34 -15 12 0 12 3 1 16 -10 12 -10 17 -1 23 9 6 12
180 9 737 l-2 729 -3 -728z m-21 -754 c13 -16 12 -17 -3 -4 -17 13 -22 21 -14
21 2 0 10 -8 17 -17z"/>
<path d="M2144 329 c-3 -5 1 -9 10 -9 8 0 22 -3 32 -7 11 -4 15 -3 11 4 -9 15
-46 23 -53 12z"/>
</g>
</svg>
